<svg width="24" height="25" viewBox="0 0 24 25" fill="none" xmlns="http://www.w3.org/2000/svg">
<path d="M0.518742 6.64511L10.5187 0.820795C11.1852 0.432642 12 0.944182 12 1.75072V17.8017C12 18.1888 11.8012 18.5453 11.4813 18.7316L1.48126 24.5559C0.814822 24.9441 0 24.4325 0 23.626V7.57504C0 7.18786 0.198825 6.83144 0.518742 6.64511Z" fill="white"/>
<path fill-rule="evenodd" clip-rule="evenodd" d="M1.5 7.88893V22.7297L10.5 17.4878V2.64705L1.5 7.88893ZM10.7586 17.3372L10.7594 17.3367L11 17.8017L10.7594 17.3367C10.7591 17.3369 10.7589 17.337 10.7586 17.3372ZM10.5187 0.820795L0.518742 6.64511C0.198825 6.83144 0 7.18786 0 7.57504V23.626C0 24.4325 0.814822 24.9441 1.48126 24.5559L11.4813 18.7316C11.8012 18.5453 12 18.1888 12 17.8017V1.75072C12 0.944182 11.1852 0.432642 10.5187 0.820795Z" fill="#272738"/>
<path d="M6.51874 6.64511L16.5187 0.820795C17.1852 0.432642 18 0.944182 18 1.75072V17.8017C18 18.1888 17.8012 18.5453 17.4813 18.7316L7.48126 24.5559C6.81482 24.9441 6 24.4325 6 23.626V7.57504C6 7.18786 6.19883 6.83144 6.51874 6.64511Z" fill="white"/>
<path fill-rule="evenodd" clip-rule="evenodd" d="M7.5 7.88893V22.7297L16.5 17.4878V2.64705L7.5 7.88893ZM16.7586 17.3372L16.7594 17.3367L17 17.8017L16.7594 17.3367C16.7591 17.3369 16.7589 17.337 16.7586 17.3372ZM16.5187 0.820795L6.51874 6.64511C6.19883 6.83144 6 7.18786 6 7.57504V23.626C6 24.4325 6.81482 24.9441 7.48126 24.5559L17.4813 18.7316C17.8012 18.5453 18 18.1888 18 17.8017V1.75072C18 0.944182 17.1852 0.432642 16.5187 0.820795Z" fill="#272738"/>
<path d="M12.5187 6.64511L22.5187 0.820795C23.1852 0.432642 24 0.944182 24 1.75072V17.8017C24 18.1888 23.8012 18.5453 23.4813 18.7316L13.4813 24.5559C12.8148 24.9441 12 24.4325 12 23.626V7.57504C12 7.18786 12.1988 6.83144 12.5187 6.64511Z" fill="white"/>
<path fill-rule="evenodd" clip-rule="evenodd" d="M13.5 7.88893V22.7297L22.5 17.4878V2.64705L13.5 7.88893ZM22.7586 17.3372L22.7594 17.3367L23 17.8017L22.7594 17.3367C22.7591 17.3369 22.7589 17.337 22.7586 17.3372ZM22.5187 0.820795L12.5187 6.64511C12.1988 6.83144 12 7.18786 12 7.57504V23.626C12 24.4325 12.8148 24.9441 13.4813 24.5559L23.4813 18.7316C23.8012 18.5453 24 18.1888 24 17.8017V1.75072C24 0.944182 23.1852 0.432642 22.5187 0.820795Z" fill="#272738"/>
</svg>
