<svg width="14" height="12" viewBox="0 0 14 12" fill="none" xmlns="http://www.w3.org/2000/svg">
<path fill-rule="evenodd" clip-rule="evenodd" d="M0.37258 8.36227C-0.63066 9.94104 0.510015 12 2.3879 12H11.6121C13.49 12 14.6307 9.94103 13.6274 8.36226L9.01532 1.10433C8.07964 -0.368112 5.92036 -0.368111 4.98468 1.10434L0.37258 8.36227ZM8.16667 9.8C8.16667 10.3523 7.71895 10.8 7.16667 10.8H6.83333C6.28105 10.8 5.83333 10.3523 5.83333 9.8V9.4C5.83333 8.84771 6.28105 8.4 6.83333 8.4H7.16667C7.71895 8.4 8.16667 8.84772 8.16667 9.4V9.8ZM7.16667 7.2C7.71895 7.2 8.16667 6.75229 8.16667 6.2V3.4C8.16667 2.84772 7.71895 2.4 7.16667 2.4H6.83333C6.28105 2.4 5.83333 2.84771 5.83333 3.4V6.2C5.83333 6.75229 6.28105 7.2 6.83333 7.2H7.16667Z" fill="#FF708A"/>
</svg>
