<svg viewBox="0 0 24 24" fill="currentColor" aria-hidden="true" focusable="false"  xmlns="http://www.w3.org/2000/svg">
<path d="M17.5385 4H6.46154C5.80892 4.00071 5.18323 4.26028 4.72176 4.72176C4.26028 5.18323 4.00071 5.80892 4 6.46154V17.5385C4.00071 18.1911 4.26028 18.8168 4.72176 19.2782C5.18323 19.7397 5.80892 19.9993 6.46154 20H17.5385C18.1911 19.9993 18.8168 19.7397 19.2782 19.2782C19.7397 18.8168 19.9993 18.1911 20 17.5385V6.46154C19.9993 5.80892 19.7397 5.18323 19.2782 4.72176C18.8168 4.26028 18.1911 4.00071 17.5385 4ZM16.1635 9.31885L10.9942 15.4727C10.9375 15.5402 10.867 15.5948 10.7873 15.6327C10.7077 15.6706 10.6209 15.6909 10.5327 15.6923H10.5223C10.4361 15.6923 10.3508 15.6741 10.272 15.639C10.1932 15.6039 10.1227 15.5526 10.065 15.4885L7.84962 13.0269C7.79335 12.9672 7.74959 12.8969 7.72089 12.8201C7.69219 12.7433 7.67914 12.6615 7.6825 12.5795C7.68587 12.4976 7.70558 12.4171 7.74047 12.3429C7.77537 12.2687 7.82476 12.2022 7.88572 12.1473C7.94668 12.0925 8.018 12.0504 8.09548 12.0234C8.17295 11.9965 8.25502 11.9854 8.33687 11.9907C8.41872 11.9959 8.49869 12.0175 8.57208 12.0541C8.64547 12.0907 8.7108 12.1416 8.76423 12.2038L10.5062 14.1392L15.2212 8.52731C15.3269 8.40503 15.4766 8.32928 15.6377 8.31644C15.7989 8.3036 15.9586 8.35469 16.0824 8.45868C16.2062 8.56266 16.2841 8.71119 16.2993 8.87215C16.3144 9.0331 16.2656 9.19356 16.1635 9.31885Z" />
</svg>
