<svg width="12" height="12" viewBox="0 0 12 12" fill="#3D113F" xmlns="http://www.w3.org/2000/svg">
<path fill-rule="evenodd" clip-rule="evenodd" d="M2.11111 1H9.88889C10.5 1 11 1.5 11 2.11111V9.88889C11 10.5 10.5 11 9.88889 11H2.11111C1.5 11 1 10.5 1 9.88889V2.11111C1 1.5 1.5 1 2.11111 1ZM4.49971 8.38348C4.71638 8.60015 5.06638 8.60015 5.28304 8.38348L9.49415 4.16682C9.71082 3.95015 9.71082 3.60015 9.49415 3.38348C9.27749 3.16682 8.92749 3.16682 8.71082 3.38348L4.8886 7.2057L3.2886 5.6057C3.07193 5.38904 2.72193 5.38904 2.50527 5.6057C2.40124 5.7095 2.34277 5.85042 2.34277 5.99737C2.34277 6.14432 2.40124 6.28524 2.50527 6.38904L4.49971 8.38348Z"/>
<path fill-rule="evenodd" clip-rule="evenodd" d="M10.6667 0H1.33333C0.599999 0 0 0.6 0 1.33333V10.6667C0 11.4 0.599999 12 1.33333 12H10.6667C11.4 12 12 11.4 12 10.6667V1.33333C12 0.6 11.4 0 10.6667 0ZM10 10.6667H2C1.63333 10.6667 1.33333 10.3667 1.33333 10V2C1.33333 1.63333 1.63333 1.33333 2 1.33333H10C10.3667 1.33333 10.6667 1.63333 10.6667 2V10C10.6667 10.3667 10.3667 10.6667 10 10.6667Z" />
</svg>
