<svg width="12" height="12" viewBox="0 0 12 12" fill="#4F4F4F" xmlns="http://www.w3.org/2000/svg">
<rect x="1" y="1" width="10" height="10" fill="white"/>
<path fill-rule="evenodd" clip-rule="evenodd" d="M10.6667 0H1.33333C0.599999 0 0 0.6 0 1.33333V10.6667C0 11.4 0.599999 12 1.33333 12H10.6667C11.4 12 12 11.4 12 10.6667V1.33333C12 0.6 11.4 0 10.6667 0ZM10 10.6667H2C1.63333 10.6667 1.33333 10.3667 1.33333 10V2C1.33333 1.63333 1.63333 1.33333 2 1.33333H10C10.3667 1.33333 10.6667 1.63333 10.6667 2V10C10.6667 10.3667 10.3667 10.6667 10 10.6667Z"/>
</svg>
