<svg width="10" height="10" viewBox="0 0 10 10" fill="none" xmlns="http://www.w3.org/2000/svg">
<path d="M1.34088 0.278264C1.04798 -0.0146296 0.57311 -0.0146296 0.280217 0.278264C-0.0126764 0.571157 -0.0126764 1.04603 0.280217 1.33892L3.93995 4.99866L0.280217 8.65839C-0.0126764 8.95129 -0.0126764 9.42616 0.280217 9.71905C0.57311 10.0119 1.04798 10.0119 1.34088 9.71905L5.00061 6.05932L8.66035 9.71905C8.95324 10.0119 9.42811 10.0119 9.72101 9.71905C10.0139 9.42616 10.0139 8.95129 9.72101 8.65839L6.06127 4.99866L9.72101 1.33892C10.0139 1.04603 10.0139 0.571157 9.72101 0.278264C9.42811 -0.0146296 8.95324 -0.0146296 8.66035 0.278264L5.00061 3.938L1.34088 0.278264Z" fill="#4F4F4F"/>
</svg>
